HIERARCHY
ROOT joint_Root
{
  OFFSET 0 0 0
  CHANNELS 6 Xposition Yposition Zposition Zrotation Xrotation Yrotation
  JOINT Hips
  {
    OFFSET 0 93.9241 -3
    CHANNELS 6 Xposition Yposition Zposition Zrotation Xrotation Yrotation
    JOINT Spine
    {
      OFFSET 15.7357 0 0
      CHANNELS 6 Xposition Yposition Zposition Zrotation Xrotation Yrotation
      JOINT Chest
      {
        OFFSET 8.98455 -0.406207 0
        CHANNELS 6 Xposition Yposition Zposition Zrotation Xrotation Yrotation
        JOINT Neck
        {
          OFFSET 16.3773 0 0
          CHANNELS 6 Xposition Yposition Zposition Zrotation Xrotation Yrotation
          JOINT Head
          {
            OFFSET 6.45672 0 0
            CHANNELS 6 Xposition Yposition Zposition Zrotation Xrotation Yrotation
            End Site
            {
              OFFSET 0 0 0
            }
          }
        }
        JOINT Shoulder_L
        {
          OFFSET 12.9942 -0.242716 4.98039
          CHANNELS 6 Xposition Yposition Zposition Zrotation Xrotation Yrotation
          JOINT UpperArm_L
          {
            OFFSET 5.34809 0 0
            CHANNELS 6 Xposition Yposition Zposition Zrotation Xrotation Yrotation
            JOINT LowerArm_L
            {
              OFFSET 24.3286 1.87007e-05 0
              CHANNELS 6 Xposition Yposition Zposition Zrotation Xrotation Yrotation
              JOINT Hand_L
              {
                OFFSET 22.2916 0 0
                CHANNELS 6 Xposition Yposition Zposition Zrotation Xrotation Yrotation
                End Site
                {
                  OFFSET 0 0 0
                }
              }
            }
          }
        }
        JOINT Shoulder_R
        {
          OFFSET 12.9945 -0.242716 -4.98039
          CHANNELS 6 Xposition Yposition Zposition Zrotation Xrotation Yrotation
          JOINT UpperArm_R
          {
            OFFSET -5.34813 0 0
            CHANNELS 6 Xposition Yposition Zposition Zrotation Xrotation Yrotation
            JOINT LowerArm_R
            {
              OFFSET -24.3289 0.000322201 0
              CHANNELS 6 Xposition Yposition Zposition Zrotation Xrotation Yrotation
              JOINT Hand_R
              {
                OFFSET -22.2915 -0.000108084 0
                CHANNELS 6 Xposition Yposition Zposition Zrotation Xrotation Yrotation
                End Site
                {
                  OFFSET 0 0 0
                }
              }
            }
          }
        }
      }
    }
    JOINT UpperLeg_L
    {
      OFFSET -2.19248 -6.46944 0
      CHANNELS 6 Xposition Yposition Zposition Zrotation Xrotation Yrotation
      JOINT LowerLeg_L
      {
        OFFSET 39.0811 0 -1.23785e-05
        CHANNELS 6 Xposition Yposition Zposition Zrotation Xrotation Yrotation
        JOINT Foot_L
        {
          OFFSET 40.9854 0 -1.26872e-05
          CHANNELS 6 Xposition Yposition Zposition Zrotation Xrotation Yrotation
          JOINT Toes_L
          {
            OFFSET 11.7543 0 0
            CHANNELS 6 Xposition Yposition Zposition Zrotation Xrotation Yrotation
            End Site
            {
              OFFSET 0 0 0
            }
          }
        }
      }
    }
    JOINT UpperLeg_R
    {
      OFFSET -2.19251 6.46944 0
      CHANNELS 6 Xposition Yposition Zposition Zrotation Xrotation Yrotation
      JOINT LowerLeg_R
      {
        OFFSET -39.0811 -0.00228153 -0.0401928
        CHANNELS 6 Xposition Yposition Zposition Zrotation Xrotation Yrotation
        JOINT Foot_R
        {
          OFFSET -40.9854 0 0
          CHANNELS 6 Xposition Yposition Zposition Zrotation Xrotation Yrotation
          JOINT Toes_R
          {
            OFFSET -11.7543 0 0
            CHANNELS 6 Xposition Yposition Zposition Zrotation Xrotation Yrotation
            End Site
            {
              OFFSET 0 0 0
            }
          }
        }
      }
    }
  }
}
MOTION
Frames:	7
Frame Time:	0.0333333
0 0 0 0 0 -0 -6.69188 90.248 1.75174 82.7522 6.56716 5.23857 15.7357 5.1072e-06 -5.51765e-07 77.5384 87.6221 -76.5775 8.98455 -0.406207 -4.3199e-07 -3.11252 -1.11694 1.89165 16.3773 -1.3905e-06 -6.99897e-07 -10.3565 -8.18044 6.07288 6.45672 -1.25837e-06 -1.02172e-07 6.37936 -7.53872 11.9642 12.9942 -0.242716 4.98039 -85.5219 -11.0266 -82.7326 5.34809 -7.22636e-06 -6.2814e-07 78.7049 -89.7105 47.6551 24.3286 1.87007e-05 4.90208e-06 8.17158 3.7502 -65.5091 22.2916 -9.88446e-07 4.63217e-06 49.5694 5.41146 -3.31195 12.9945 -0.242716 -4.98039 94.234 -10.4429 -82.7829 -5.34813 -1.25947e-06 -3.79883e-06 49.4808 -71.363 33.2428 -24.3289 0.000322201 -8.65921e-06 -0.956497 -0.359003 -69.4367 -22.2915 -0.000108084 -4.47941e-06 62.5104 5.67908 -19.1648 -2.19248 -6.46944 -1.22534e-07 -154.398 -37.09 -5.04831 39.0811 -6.73843e-06 -1.23785e-05 0.0855772 -0.493383 10.2635 40.9854 -6.48686e-06 -1.26872e-05 -9.4486 -9.41837 -40.6269 11.7543 -2.30145e-07 3.05095e-06 0.0640607 -0.071895 -17.2793 -2.19251 6.46944 -1.45247e-06 -166.813 8.13322 175.322 -39.0811 -0.00228153 -0.0401928 0.154871 -0.247736 26.2214 -40.9854 7.72618e-06 5.99936e-06 3.27542 -13.1714 -68.6542 -11.7543 -5.6619e-06 -5.58687e-06 -0.0820039 0.0559589 -16.5731 
0 0 0 0 0 -0 -6.7193 90.2137 1.91611 82.733 6.4591 5.37515 15.7357 5.1072e-06 -5.51765e-07 78.05 87.6599 -77.1403 8.98455 -0.406207 -4.3199e-07 -3.17849 -1.05546 1.79038 16.3773 -1.3905e-06 -6.99897e-07 -10.1036 -8.23456 6.14854 6.45672 -1.25837e-06 -1.02172e-07 6.71307 -7.57684 12.2527 12.9942 -0.242716 4.98039 -85.6073 -10.7158 -82.5527 5.34809 -7.22636e-06 -6.2814e-07 -121.606 -89.0368 -152.875 24.3286 1.87007e-05 4.90208e-06 7.89295 4.13499 -62.517 22.2916 -9.88446e-07 4.63217e-06 49.0058 5.39939 -2.91313 12.9945 -0.242716 -4.98039 94.1454 -10.1744 -82.6918 -5.34813 -1.25947e-06 -3.79883e-06 48.5857 -71.9492 31.6492 -24.3289 0.000322201 -8.65921e-06 -1.77731 -0.824349 -65.1175 -22.2915 -0.000108084 -4.47941e-06 64.1093 5.67927 -19.3355 -2.19248 -6.46944 -1.22534e-07 -154.095 -37.0564 -4.89241 39.0811 -6.73843e-06 -1.23785e-05 0.0881168 -0.486211 10.6723 40.9854 -6.48686e-06 -1.26872e-05 -9.62035 -9.44329 -40.9024 11.7543 -2.30145e-07 3.05095e-06 0.0544611 -0.0610214 -17.1734 -2.19251 6.46944 -1.45247e-06 -166.791 8.09577 175.557 -39.0811 -0.00228153 -0.0401928 0.156169 -0.249025 26.3045 -40.9854 7.72618e-06 5.99936e-06 3.27123 -13.1273 -68.8219 -11.7543 -5.6619e-06 -5.58687e-06 -0.07457 0.0509265 -16.5732 
0 0 0 0 0 -0 -6.75427 90.1768 2.07938 82.7009 6.33447 5.54398 15.7357 5.1072e-06 -5.51765e-07 78.2843 87.699 -77.4129 8.98455 -0.406207 -4.3199e-07 -3.25177 -1.01778 1.71441 16.3773 -1.3905e-06 -6.99897e-07 -9.8923 -8.27973 6.21224 6.45672 -1.25837e-06 -1.02172e-07 7.13149 -7.58383 12.409 12.9942 -0.242716 4.98039 -85.7402 -10.2908 -82.3663 5.34809 -7.22636e-06 -6.2814e-07 -92.2806 -88.6371 -124.507 24.3286 1.87007e-05 4.90208e-06 5.24565 3.48351 -56.4746 22.2916 -9.88446e-07 4.63217e-06 47.3432 5.3808 -2.31576 12.9945 -0.242716 -4.98039 94.0621 -9.89641 -82.5491 -5.34813 -1.25947e-06 -3.79883e-06 45.787 -72.4697 27.6905 -24.3289 0.000322201 -8.65921e-06 -3.20627 -2.02535 -57.7926 -22.2915 -0.000108084 -4.47941e-06 63.0282 5.67535 -18.2751 -2.19248 -6.46944 -1.22534e-07 -153.759 -36.9741 -4.72771 39.0811 -6.73843e-06 -1.23785e-05 0.0919011 -0.484045 11.1322 40.9854 -6.48686e-06 -1.26872e-05 -9.79459 -9.51242 -41.2071 11.7543 -2.30145e-07 3.05095e-06 0.0592908 -0.0664859 -17.2267 -2.19251 6.46944 -1.45247e-06 -166.771 8.17634 175.822 -39.0811 -0.00228153 -0.0401928 0.156895 -0.249151 26.3877 -40.9854 7.72618e-06 5.99936e-06 3.28559 -13.0151 -68.9943 -11.7543 -5.6619e-06 -5.58687e-06 -0.076412 0.0522327 -16.5732 
0 0 0 0 0 -0 -6.78275 90.1403 2.23666 82.6634 6.22032 5.65202 15.7357 5.1072e-06 -5.51765e-07 78.3167 87.7684 -77.466 8.98455 -0.406207 -4.3199e-07 -3.38766 -0.986128 1.67281 16.3773 -1.3905e-06 -6.99897e-07 -9.71283 -8.30244 6.21329 6.45672 -1.25837e-06 -1.02172e-07 7.47526 -7.62639 12.4141 12.9942 -0.242716 4.98039 -85.8128 -10.0149 -82.1692 5.34809 -7.22636e-06 -6.2814e-07 -38.6404 -88.1655 -71.985 24.3286 1.87007e-05 4.90208e-06 1.91736 1.68578 -48.6192 22.2916 -9.88446e-07 4.63217e-06 44.555 5.34233 -1.13227 12.9945 -0.242716 -4.98039 93.9489 -9.48599 -82.2732 -5.34813 -1.25947e-06 -3.79883e-06 41.2695 -72.9183 21.459 -24.3289 0.000322201 -8.65921e-06 -5.89187 -5.18263 -48.8399 -22.2915 -0.000108084 -4.47941e-06 59.0007 5.66251 -16.2087 -2.19248 -6.46944 -1.22534e-07 -153.464 -36.8417 -4.6177 39.0811 -6.73843e-06 -1.23785e-05 0.0960678 -0.486048 11.5521 40.9854 -6.48686e-06 -1.26872e-05 -9.98368 -9.60571 -41.5035 11.7543 -2.30145e-07 3.05095e-06 0.0620366 -0.0696002 -17.2568 -2.19251 6.46944 -1.45247e-06 -166.73 8.19722 176.024 -39.0811 -0.00228153 -0.0401928 0.15899 -0.252123 26.4648 -40.9854 7.72618e-06 5.99936e-06 3.30554 -12.9057 -69.1562 -11.7543 -5.6619e-06 -5.58687e-06 -0.0675985 0.0462551 -16.5733 
0 0 0 0 0 -0 -6.79535 90.1155 2.39076 82.6552 6.12553 5.8366 15.7357 5.1072e-06 -5.51765e-07 78.7813 87.8221 -77.9586 8.98455 -0.406207 -4.3199e-07 -3.4865 -0.927754 1.61758 16.3773 -1.3905e-06 -6.99897e-07 -9.56457 -8.31486 6.13273 6.45672 -1.25837e-06 -1.02172e-07 7.74015 -7.73183 12.414 12.9942 -0.242716 4.98039 -85.8678 -9.79249 -81.9847 5.34809 -7.22636e-06 -6.2814e-07 -4.40298 -86.0447 -39.188 24.3286 1.87007e-05 4.90208e-06 -0.282958 -0.349389 -39.528 22.2916 -9.88446e-07 4.63217e-06 40.852 5.29987 0.0892048 12.9945 -0.242716 -4.98039 93.8698 -9.11525 -81.8776 -5.34813 -1.25947e-06 -3.79883e-06 35.3044 -72.6998 13.5882 -24.3289 0.000322201 -8.65921e-06 -8.09123 -10.0911 -39.0819 -22.2915 -0.000108084 -4.47941e-06 54.9209 5.63424 -13.5475 -2.19248 -6.46944 -1.22534e-07 -153.174 -36.6419 -4.37132 39.0811 -6.73843e-06 -1.23785e-05 0.0991257 -0.487617 11.855 40.9854 -6.48686e-06 -1.26872e-05 -10.1446 -9.76463 -41.7561 11.7543 -2.30145e-07 3.05095e-06 0.0634559 -0.0712023 -17.2723 -2.19251 6.46944 -1.45247e-06 -166.738 8.15853 176.315 -39.0811 -0.00228153 -0.0401928 0.158865 -0.251171 26.5102 -40.9854 7.72618e-06 5.99936e-06 3.28522 -12.8929 -69.2936 -11.7543 -5.6619e-06 -5.58687e-06 -0.0861359 0.0590597 -16.5731 
0 0 0 0 0 -0 -6.79144 90.0796 2.56007 82.663 6.0637 6.06955 15.7357 5.1072e-06 -5.51765e-07 79.0214 87.8718 -78.2283 8.98455 -0.406207 -4.3199e-07 -3.58102 -0.888691 1.55876 16.3773 -1.3905e-06 -6.99897e-07 -9.40953 -8.30589 5.96163 6.45672 -1.25837e-06 -1.02172e-07 8.00882 -7.82845 12.4933 12.9942 -0.242716 4.98039 -85.8966 -9.56432 -81.6468 5.34809 -7.22636e-06 -6.2814e-07 7.07589 -82.3218 -29.8495 24.3286 1.87007e-05 4.90208e-06 -1.88341 -3.41812 -28.9573 22.2916 -9.88446e-07 4.63217e-06 36.5329 5.2607 1.17167 12.9945 -0.242716 -4.98039 93.7578 -8.63165 -81.3638 -5.34813 -1.25947e-06 -3.79883e-06 28.6046 -71.6215 4.32275 -24.3289 0.000322201 -8.65921e-06 -8.36593 -16.0606 -28.0412 -22.2915 -0.000108084 -4.47941e-06 50.8915 5.58869 -10.6065 -2.19248 -6.46944 -1.22534e-07 -152.894 -36.3749 -4.18045 39.0811 -6.73843e-06 -1.23785e-05 0.101795 -0.47809 12.3437 40.9854 -6.48686e-06 -1.26872e-05 -10.3201 -9.93941 -42.1137 11.7543 -2.30145e-07 3.05095e-06 0.0616325 -0.0691534 -17.2526 -2.19251 6.46944 -1.45247e-06 -166.804 8.30418 176.636 -39.0811 -0.00228153 -0.0401928 0.15817 -0.247945 26.6258 -40.9854 7.72618e-06 5.99936e-06 3.26951 -12.7628 -69.4949 -11.7543 -5.6619e-06 -5.58687e-06 -0.0747722 0.0512394 -16.5731 
0 0 0 0 0 -0 -6.77561 90.0543 2.72452 82.7149 6.0191 6.30519 15.7357 5.1072e-06 -5.51765e-07 79.1816 87.9182 -78.4092 8.98455 -0.406207 -4.3199e-07 -3.67041 -0.858086 1.51772 16.3773 -1.3905e-06 -6.99897e-07 -9.30105 -8.28131 5.89431 6.45672 -1.25837e-06 -1.02172e-07 8.21172 -7.82067 12.2998 12.9942 -0.242716 4.98039 -85.8642 -9.43101 -81.1881 5.34809 -7.22636e-06 -6.2814e-07 10.3354 -77.9535 -28.7261 24.3286 1.87007e-05 4.90208e-06 -2.68005 -7.95786 -18.71 22.2916 -9.88446e-07 4.63217e-06 30.5405 5.17232 3.47749 12.9945 -0.242716 -4.98039 93.6542 -8.06992 -80.5369 -5.34813 -1.25947e-06 -3.79883e-06 21.7271 -70.0536 -5.99737 -24.3289 0.000322201 -8.65921e-06 -5.16271 -20.0945 -14.7346 -22.2915 -0.000108084 -4.47941e-06 45.9596 5.51256 -6.88031 -2.19248 -6.46944 -1.22534e-07 -152.668 -36.1605 -3.9091 39.0811 -6.73843e-06 -1.23785e-05 0.103399 -0.47087 12.6893 40.9854 -6.48686e-06 -1.26872e-05 -10.4734 -10.0257 -42.4035 11.7543 -2.30145e-07 3.05095e-06 0.0616804 -0.0691929 -17.2529 -2.19251 6.46944 -1.45247e-06 -166.902 8.3431 176.968 -39.0811 -0.00228153 -0.0401928 0.159873 -0.249916 26.7147 -40.9854 7.72618e-06 5.99936e-06 3.22659 -12.7396 -69.6715 -11.7543 -5.6619e-06 -5.58687e-06 -0.0814013 0.0558066 -16.5732 
